<svg xmlns="http://www.w3.org/2000/svg" viewBox="0 0 65.283 54.446"><defs><style>.a{fill:#fff;}</style></defs><path class="a" d="M50.962,47.171a19.467,19.467,0,0,0-9.629,2.611,13.325,13.325,0,0,1-6.692,1.958,12.443,12.443,0,0,1-6.692-1.958,19.06,19.06,0,0,0-19.259,0A13.227,13.227,0,0,1,2,51.741v6.365a19.467,19.467,0,0,0,9.629-2.611,13.227,13.227,0,0,1,6.692-1.958,12.618,12.618,0,0,1,6.692,1.958,19.06,19.06,0,0,0,19.259,0,13.325,13.325,0,0,1,6.692-1.958,12.443,12.443,0,0,1,6.692,1.958,19.26,19.26,0,0,0,9.629,2.611V51.741a12.443,12.443,0,0,1-6.692-1.958A19.467,19.467,0,0,0,50.962,47.171Zm0-14.526a19.818,19.818,0,0,0-9.629,2.611c-2.122,1.045-3.852,1.958-6.692,1.958a12.443,12.443,0,0,1-6.692-1.958,19.158,19.158,0,0,0-9.629-2.611,19.5,19.5,0,0,0-9.629,2.611C6.57,36.3,4.872,37.216,2,37.216v6.365a19.818,19.818,0,0,0,9.629-2.611,12.411,12.411,0,0,1,13.383,0,19.158,19.158,0,0,0,9.629,2.611,19.5,19.5,0,0,0,9.629-2.611,12.411,12.411,0,0,1,13.383,0,19.26,19.26,0,0,0,9.629,2.611V37.216a12.443,12.443,0,0,1-6.692-1.958A19.467,19.467,0,0,0,50.962,32.646ZM60.592,6.271a19.06,19.06,0,0,0-19.259,0C39.211,7.316,37.481,8.23,34.642,8.23A12.443,12.443,0,0,1,27.95,6.271,19.5,19.5,0,0,0,18.321,3.66,19.158,19.158,0,0,0,8.692,6.271,13.227,13.227,0,0,1,2,8.23v6.3a19.818,19.818,0,0,0,9.629-2.611A13.227,13.227,0,0,1,18.321,9.96a12.618,12.618,0,0,1,6.692,1.958,19.158,19.158,0,0,0,9.629,2.611,19.5,19.5,0,0,0,9.629-2.611c2.122-1.045,3.852-1.958,6.692-1.958a12.443,12.443,0,0,1,6.692,1.958,19.26,19.26,0,0,0,9.629,2.611V8.165A13.009,13.009,0,0,1,60.592,6.271ZM50.962,18.12a19.818,19.818,0,0,0-9.629,2.611,12.411,12.411,0,0,1-13.383,0,19.158,19.158,0,0,0-9.629-2.611,19.5,19.5,0,0,0-9.629,2.611A12.443,12.443,0,0,1,2,22.69v6.365a19.818,19.818,0,0,0,9.629-2.611c2.122-1.045,3.852-1.958,6.692-1.958a12.707,12.707,0,0,1,6.692,1.958,19.158,19.158,0,0,0,9.629,2.611,19.5,19.5,0,0,0,9.629-2.611c2.122-1.045,3.852-1.958,6.692-1.958a12.443,12.443,0,0,1,6.692,1.958,19.26,19.26,0,0,0,9.629,2.611V22.69a12.443,12.443,0,0,1-6.692-1.958,19.467,19.467,0,0,0-9.629-2.611Z" transform="translate(-2 -3.66)"/></svg>