<svg xmlns="http://www.w3.org/2000/svg" viewBox="0 0 25 25"><defs><style>.a{opacity:0.75;}.b{fill:rgba(0,0,0,0);}.c{fill:#fff;}</style></defs><g class="a"><path class="b" d="M0,0H25V25H0Z"/><path class="c" d="M20.472,8.885v-4.8h-4.8L12.276.69,8.885,4.081h-4.8v4.8L.69,12.276l3.391,3.391v4.8h4.8l3.391,3.391,3.391-3.391h4.8v-4.8l3.391-3.391Zm-8.2,9.537a6.147,6.147,0,1,1,6.147-6.147A6.151,6.151,0,0,1,12.276,18.423Zm0-10.244a4.1,4.1,0,1,0,4.1,4.1A4.1,4.1,0,0,0,12.276,8.179Z" transform="translate(0.224 0.224)"/></g></svg>