<svg xmlns="http://www.w3.org/2000/svg" viewBox="0 0 72.5 72.5"><defs><style>.a{fill:#fff;}</style></defs><path class="a" d="M39.25,3a36.25,36.25,0,0,0,0,72.5,6.045,6.045,0,0,0,4.471-10.11,6.019,6.019,0,0,1,4.511-10.029h7.129A20.146,20.146,0,0,0,75.5,35.222C75.5,17.419,59.268,3,39.25,3ZM17.1,39.25a6.042,6.042,0,1,1,6.042-6.042A6.034,6.034,0,0,1,17.1,39.25ZM29.181,23.139A6.042,6.042,0,1,1,35.222,17.1,6.034,6.034,0,0,1,29.181,23.139Zm20.139,0A6.042,6.042,0,1,1,55.361,17.1,6.034,6.034,0,0,1,49.319,23.139ZM61.4,39.25a6.042,6.042,0,1,1,6.042-6.042A6.034,6.034,0,0,1,61.4,39.25Z" transform="translate(-3 -3)"/></svg>