<svg xmlns="http://www.w3.org/2000/svg" xmlns:xlink="http://www.w3.org/1999/xlink" viewBox="0 0 52.297 57.151"><defs><style>.a{fill:#fff;}.b{opacity:0.75;}.c{clip-path:url(#a);}.d{clip-path:url(#b);}.e{clip-path:url(#c);}</style><clipPath id="a"><path class="a" d="M87.7,90.632l-.1-27.378L111.451,49.5l.065,27.378Z" transform="translate(-87.6 -49.5)"/></clipPath><clipPath id="b"><path class="a" d="M-.1,76.811-.035,49.4,23.816,63.186l-.1,27.378Z" transform="translate(0.1 -49.4)"/></clipPath><clipPath id="c"><path class="a" d="M7,13.754,30.689,0,54.54,13.754,30.851,27.54Z" transform="translate(-7)"/></clipPath></defs><g class="b" transform="translate(0.1)"><g transform="translate(28.282 16.019)"><g class="c"><path class="a" d="M95.076,79.953V78.14l1.586-.906v1.812l-1.586.906m1.877-1.068V77.073l1.586-.906v1.812l-1.586.906M98.8,77.817V76l1.586-.906v1.812l-1.586.906m1.845-1.068V74.937l1.586-.906v1.812l-1.586.906m-5.566,1.068V76l1.586-.906v1.812l-1.586.906m7.443-4.272V71.733l1.553-.906v1.812l-1.553.906m-7.443,2.136V73.869l1.586-.906v1.812l-1.586.906m7.411-4.272V69.6l1.553-.906V70.5l-1.553.906m-7.411,2.168V71.765l1.586-.906v1.812l-1.586.906m7.411-4.3V67.461l1.553-.906v1.812l-1.553.906m-7.411,2.168V69.629l1.586-.906v1.812l-1.586.906m7.411-4.3V65.325l1.553-.906v1.812l-1.553.906m-7.443,2.168V67.493l1.586-.906V68.4l-1.586.906m7.443-4.3V63.189l1.553-.906V64.1L102.487,65M95.043,67.17V65.357l1.586-.906v1.812l-1.586.906M96.92,66.1V64.289l1.586-.906V65.2L96.92,66.1M98.765,65V63.189l1.586-.906V64.1L98.765,65m1.845-1.068V62.121l1.586-.906v1.812l-1.586.906M111.451,49.5,87.6,63.254l.065,27.378,23.851-13.754L111.451,49.5" transform="translate(-87.6 -49.5)"/></g></g><g transform="translate(-0.1 15.987)"><g transform="translate(0)"><g class="d"><path class="a" d="M7.8,74.222V72.6l1.424.809v1.618L7.8,74.222m1.65.971V73.574l1.424.809V76l-1.424-.809m1.683.971V74.545l1.424.809v1.618l-1.424-.809m1.65.971V75.516l1.424.841v1.618l-1.424-.841m1.683.971V76.487l1.424.809v1.618l-1.424-.809M7.8,72.312V70.694L9.22,71.5v1.618L7.8,72.312m0-1.909V68.785l1.424.809v1.618L7.8,70.4m0-1.909v-1.65l1.424.809V69.3L7.8,68.494m1.683.938v-1.65l1.424.809v1.65l-1.424-.809m1.683.971v-1.65l1.424.809v1.65L11.162,70.4m1.65.971v-1.65l1.424.841v1.65l-1.424-.841M7.8,66.552V64.934l1.424.809v1.618L7.8,66.552m.032-1.909V63.024l1.424.809v1.618l-1.424-.809m0-1.942V61.083l1.424.809V63.51L7.829,62.7m1.65.971V62.054l1.424.809v1.618l-1.424-.809m1.683.971V63.024l1.424.809v1.618l-1.424-.809m1.65.971V64l1.424.841v1.618l-1.424-.841m1.683.971V64.966l1.424.809v1.618L14.5,66.584m9.32-3.4L-.035,49.4-.1,76.778,23.751,90.532l.065-27.346" transform="translate(0.1 -49.4)"/></g></g></g><g transform="translate(2.198)"><g class="e"><path class="a" d="M21.045,14.725l1.392-.809,1.424.809-1.392.809-1.424-.809m1.683.971,1.392-.809,1.424.809L24.12,16.5,22.728,15.7m1.65.971,1.392-.809,1.424.809-1.392.809-1.424-.809m1.683.971,1.392-.809,1.424.841-1.392.777-1.424-.809m1.65.938,1.392-.809,1.424.809-1.392.841-1.424-.841M22.7,13.754l1.392-.809,1.424.809-1.392.809L22.7,13.754m1.683-.939,1.392-.841,1.424.809-1.424.841-1.392-.809m1.65-.971L27.453,11l1.424.809-1.424.841-1.424-.809m1.65-.971,1.392-.809,1.424.809-1.392.809-1.424-.809M29.33,9.9l1.392-.809,1.424.809-1.392.809L29.33,9.9m1.683-.971L32.4,8.123l1.424.809-1.392.809-1.424-.809M54.54,13.754,30.689,0,7,13.754,30.851,27.508,54.54,13.754" transform="translate(-7)"/></g></g></g></svg>