<svg xmlns="http://www.w3.org/2000/svg" viewBox="0 0 45 45"><defs><style>.a{opacity:0.75;}.b{fill:#fff;}</style></defs><g class="a"><path class="b" d="M43.771,0H1.229A1.229,1.229,0,0,0,0,1.229V43.771A1.229,1.229,0,0,0,1.229,45H43.771A1.229,1.229,0,0,0,45,43.771V1.229A1.229,1.229,0,0,0,43.771,0ZM11.259,38.889a4.308,4.308,0,1,1,4.308-4.308A4.308,4.308,0,0,1,11.259,38.889Zm0-24.162a4.308,4.308,0,1,1,4.308-4.307A4.307,4.307,0,0,1,11.259,14.727ZM22.5,26.808A4.308,4.308,0,1,1,26.808,22.5,4.308,4.308,0,0,1,22.5,26.808ZM33.741,38.889a4.308,4.308,0,1,1,4.307-4.308A4.307,4.307,0,0,1,33.741,38.889Zm0-24.162a4.308,4.308,0,1,1,4.307-4.307A4.307,4.307,0,0,1,33.741,14.727Z"/></g></svg>